<svg width="148" height="72" fill="none" xmlns="http://www.w3.org/2000/svg"><path d="M0 35.273h6.74V45.37H0V35.273zM22.278.612V45.37h-6.762V.612h6.762zM72.26 22.991c0 4.779-.875 8.888-2.626 12.326-1.75 3.424-4.15 6.061-7.2 7.911-3.034 1.836-6.484 2.754-10.35 2.754-3.881 0-7.346-.918-10.395-2.754-3.035-1.85-5.428-4.494-7.178-7.933-1.751-3.438-2.626-7.54-2.626-12.304 0-4.779.875-8.88 2.626-12.304 1.75-3.439 4.143-6.076 7.178-7.911C44.738.926 48.203 0 52.083 0 55.95 0 59.4.925 62.434 2.776c3.05 1.835 5.45 4.472 7.2 7.91 1.75 3.425 2.626 7.526 2.626 12.305zm-6.696 0c0-3.642-.591-6.71-1.773-9.2-1.167-2.507-2.772-4.4-4.814-5.683-2.028-1.297-4.326-1.945-6.894-1.945-2.582 0-4.887.648-6.915 1.945-2.028 1.282-3.633 3.176-4.814 5.682-1.167 2.492-1.751 5.559-1.751 9.201 0 3.643.584 6.717 1.75 9.223 1.182 2.491 2.787 4.385 4.815 5.682 2.028 1.282 4.333 1.923 6.915 1.923 2.568 0 4.866-.641 6.894-1.923 2.042-1.297 3.647-3.19 4.814-5.682 1.182-2.506 1.773-5.58 1.773-9.223zm10.81-16.566V.612h34.686v5.813H97.076V45.37h-6.74V6.425H76.374zm38.735 38.945h-7.178L124.059.612h7.813L148 45.37h-7.178L128.151 8.742h-.35L115.109 45.37zm1.203-17.527h23.285v5.682h-23.285v-5.682zM73.836 72a3.435 3.435 0 01-1.445-.295c-.43-.2-.77-.49-1.023-.869-.247-.379-.371-.843-.371-1.393 0-.474.09-.863.273-1.17.182-.305.429-.547.739-.726.31-.178.656-.313 1.04-.404.382-.091.772-.16 1.17-.208l1.225-.142c.314-.04.542-.104.684-.191.142-.088.214-.23.214-.426v-.038c0-.478-.135-.847-.405-1.11-.266-.262-.664-.393-1.193-.393-.55 0-.985.122-1.302.366-.314.24-.53.508-.651.803l-1.537-.35c.182-.51.448-.921.798-1.234.354-.317.76-.547 1.22-.689.46-.145.943-.218 1.45-.218.336 0 .691.04 1.067.12.38.077.733.218 1.061.426.332.208.604.505.816.89.211.383.317.88.317 1.492v5.573h-1.598v-1.147h-.065a2.324 2.324 0 01-.476.623 2.527 2.527 0 01-.816.508c-.331.135-.729.202-1.192.202zm.356-1.311c.452 0 .838-.09 1.16-.268.324-.178.57-.412.738-.7a1.81 1.81 0 00.257-.934v-1.081c-.058.058-.171.112-.34.163-.163.048-.351.09-.563.126-.211.033-.417.064-.618.093-.2.026-.368.047-.503.066a4.05 4.05 0 00-.87.202 1.495 1.495 0 00-.624.41c-.153.174-.23.407-.23.699 0 .404.15.71.45.918.298.204.68.306 1.142.306zm6.355 1.125v-8.392h1.58v1.333h.088a2.03 2.03 0 01.81-1.065 2.32 2.32 0 011.324-.394 6.982 6.982 0 01.695.039v1.562a2.902 2.902 0 00-.35-.06 3.346 3.346 0 00-.504-.038c-.386 0-.73.082-1.034.246a1.829 1.829 0 00-.973 1.644v5.125h-1.636zm9.537.17c-.814 0-1.514-.184-2.101-.552a3.655 3.655 0 01-1.346-1.535c-.314-.653-.47-1.4-.47-2.24 0-.853.16-1.605.48-2.257a3.686 3.686 0 011.357-1.535c.584-.368 1.272-.552 2.063-.552.638 0 1.207.118 1.707.355.5.233.903.56 1.21.983.31.423.493.916.552 1.481h-1.592a1.904 1.904 0 00-.602-1.016c-.31-.284-.726-.426-1.248-.426-.456 0-.855.12-1.198.36-.339.237-.603.576-.793 1.017-.19.437-.284.954-.284 1.551 0 .612.093 1.14.278 1.585.187.444.45.788.788 1.032a2.03 2.03 0 001.21.366c.31 0 .59-.056.842-.17a1.72 1.72 0 00.64-.496 1.87 1.87 0 00.367-.776h1.592a3.086 3.086 0 01-.531 1.453 3.053 3.053 0 01-1.187 1.006c-.493.244-1.07.366-1.734.366zm7.222-5.153v4.983H95.67v-11.19h1.614v4.164h.104c.197-.452.498-.81.903-1.076s.933-.4 1.586-.4c.577 0 1.08.12 1.51.356.434.237.77.59 1.007 1.06.241.466.361 1.049.361 1.748v5.338h-1.636v-5.141c0-.616-.158-1.093-.476-1.431-.317-.343-.758-.514-1.324-.514-.386 0-.733.082-1.04.246a1.775 1.775 0 00-.716.72c-.171.314-.257.693-.257 1.137zm8.017 4.983v-8.392h1.636v8.392h-1.636zm.826-9.687a1.04 1.04 0 01-.733-.284.922.922 0 01-.301-.688c0-.27.1-.5.301-.689a1.03 1.03 0 01.733-.29c.285 0 .527.097.728.29.204.19.306.42.306.689a.916.916 0 01-.306.688 1.02 1.02 0 01-.728.284zm7.318 1.295v1.311h-4.59v-1.31h4.59zm-3.359-2.01h1.636v7.938c0 .317.047.556.142.716a.741.741 0 00.367.322c.153.055.319.082.498.082.131 0 .246-.009.344-.027l.23-.044.296 1.35a2.77 2.77 0 01-.405.109c-.175.04-.394.062-.657.066a2.89 2.89 0 01-1.203-.23 2.066 2.066 0 01-.903-.743c-.23-.335-.345-.756-.345-1.262V61.41zm9.086 10.572c-.828 0-1.541-.177-2.14-.53a3.594 3.594 0 01-1.378-1.503c-.321-.648-.482-1.408-.482-2.278 0-.86.161-1.617.482-2.273a3.731 3.731 0 011.357-1.535c.583-.368 1.265-.552 2.046-.552.474 0 .933.078 1.378.235.445.156.845.402 1.198.737.354.335.633.77.838 1.306.204.532.306 1.178.306 1.94v.579h-6.68v-1.224h5.077c0-.43-.088-.81-.263-1.142a1.984 1.984 0 00-.738-.792 2.067 2.067 0 00-1.105-.29c-.46 0-.861.113-1.204.34a2.277 2.277 0 00-.788.873 2.524 2.524 0 00-.273 1.164v.956c0 .561.098 1.038.295 1.432.201.393.48.694.837.901.358.204.775.306 1.253.306.31 0 .593-.044.848-.131a1.84 1.84 0 00.662-.404c.186-.179.328-.4.427-.661l1.548.278a2.807 2.807 0 01-.667 1.197 3.239 3.239 0 01-1.199.792c-.477.186-1.023.279-1.635.279zm9.345 0c-.814 0-1.514-.184-2.101-.552a3.654 3.654 0 01-1.346-1.535c-.314-.653-.47-1.4-.47-2.24 0-.853.16-1.605.481-2.257a3.683 3.683 0 011.357-1.535c.583-.368 1.271-.552 2.062-.552.639 0 1.208.118 1.707.355.5.233.903.56 1.209.983.31.423.495.916.553 1.481h-1.592a1.906 1.906 0 00-.602-1.016c-.31-.284-.726-.426-1.247-.426-.456 0-.856.12-1.198.36-.34.237-.604.576-.794 1.017-.189.437-.284.954-.284 1.551 0 .612.093 1.14.279 1.585.186.444.448.788.788 1.032.342.244.745.366 1.209.366.31 0 .591-.056.842-.17a1.71 1.71 0 00.64-.496 1.87 1.87 0 00.367-.776h1.592a3.077 3.077 0 01-.531 1.453 3.049 3.049 0 01-1.187 1.006c-.492.244-1.07.366-1.734.366zm9.509-8.562v1.311h-4.59v-1.31h4.59zm-3.359-2.01h1.636v7.938c0 .317.047.556.142.716a.741.741 0 00.367.322c.153.055.319.082.497.082.132 0 .247-.009.345-.027l.23-.044.295 1.35a2.77 2.77 0 01-.405.109c-.175.04-.394.062-.656.066-.43.007-.832-.07-1.204-.23a2.057 2.057 0 01-.902-.743c-.23-.335-.345-.756-.345-1.262V61.41zm11.715 4.058l-1.482.263a1.754 1.754 0 00-.296-.54 1.46 1.46 0 00-.536-.421c-.226-.11-.509-.164-.848-.164-.463 0-.85.103-1.16.311-.31.204-.465.468-.465.792 0 .28.104.507.312.678.208.171.544.311 1.007.42l1.335.306c.773.179 1.349.454 1.729.826.379.371.569.854.569 1.447 0 .503-.146.951-.438 1.344-.288.39-.691.696-1.209.918-.514.222-1.111.334-1.789.334-.941 0-1.709-.2-2.303-.601-.595-.405-.96-.978-1.095-1.721l1.581-.24c.099.41.301.722.608.933.306.208.705.312 1.198.312.536 0 .965-.111 1.285-.333.321-.226.482-.501.482-.825a.86.86 0 00-.295-.662c-.194-.178-.491-.313-.892-.404l-1.423-.311c-.784-.179-1.364-.463-1.739-.853-.372-.39-.558-.883-.558-1.48 0-.496.138-.93.415-1.3.277-.372.66-.662 1.149-.87.489-.21 1.049-.316 1.68-.316.908 0 1.623.197 2.144.59.522.39.867.912 1.034 1.568z" fill="#000"/></svg>