<svg width="148" height="72" viewBox="0 0 148 72" fill="none" xmlns="http://www.w3.org/2000/svg">
<path d="M0 35.2733H6.7402V45.3702H0V35.2733Z" fill="black"/>
<path d="M22.2777 0.611929V45.3702H15.5156V0.611929H22.2777Z" fill="black"/>
<path d="M72.2602 22.991C72.2602 27.7699 71.3849 31.8786 69.6342 35.317C67.8835 38.7409 65.4836 41.3781 62.4344 43.2284C59.3999 45.0642 55.9495 45.9821 52.0834 45.9821C48.2027 45.9821 44.7377 45.0642 41.6886 43.2284C38.654 41.3781 36.2614 38.7337 34.5107 35.2952C32.76 31.8567 31.8847 27.7554 31.8847 22.991C31.8847 18.2122 32.76 14.1108 34.5107 10.6869C36.2614 7.24844 38.654 4.61132 41.6886 2.77554C44.7377 0.925179 48.2027 0 52.0834 0C55.9495 0 59.3999 0.925179 62.4344 2.77554C65.4836 4.61132 67.8835 7.24844 69.6342 10.6869C71.3849 14.1108 72.2602 18.2122 72.2602 22.991ZM65.5638 22.991C65.5638 19.3486 64.9729 16.2817 63.7912 13.7903C62.6241 11.2843 61.0193 9.3902 58.9768 8.10806C56.9489 6.81135 54.6511 6.163 52.0834 6.163C49.5011 6.163 47.196 6.81135 45.1681 8.10806C43.1402 9.3902 41.5354 11.2843 40.3537 13.7903C39.1866 16.2817 38.603 19.3486 38.603 22.991C38.603 26.6335 39.1866 29.7077 40.3537 32.2137C41.5354 34.7051 43.1402 36.5992 45.1681 37.8959C47.196 39.178 49.5011 39.8191 52.0834 39.8191C54.6511 39.8191 56.9489 39.178 58.9768 37.8959C61.0193 36.5992 62.6241 34.7051 63.7912 32.2137C64.9729 29.7077 65.5638 26.6335 65.5638 22.991Z" fill="black"/>
<path d="M76.3744 6.42526V0.611929H111.06V6.42526H97.0764V45.3702H90.3362V6.42526H76.3744Z" fill="black"/>
<path d="M115.109 45.3702H107.931L124.059 0.611929H131.872L148 45.3702H140.822L128.151 8.74184H127.801L115.109 45.3702ZM116.312 27.8428H139.597V33.525H116.312V27.8428Z" fill="black"/>
<path d="M73.8359 72C73.3034 72 72.8219 71.9017 72.3915 71.705C71.9612 71.5046 71.6201 71.2151 71.3685 70.8362C71.1205 70.4574 70.9965 69.993 70.9965 69.443C70.9965 68.9695 71.0876 68.5798 71.27 68.2738C71.4524 67.9678 71.6986 67.7256 72.0086 67.5471C72.3186 67.3687 72.6651 67.2339 73.0481 67.1428C73.431 67.0518 73.8213 66.9825 74.2188 66.9352C74.7222 66.8769 75.1307 66.8296 75.4443 66.7931C75.758 66.7531 75.986 66.6893 76.1282 66.6019C76.2704 66.5145 76.3416 66.3724 76.3416 66.1758V66.1375C76.3416 65.6603 76.2066 65.2906 75.9367 65.0284C75.6705 64.7661 75.2729 64.635 74.7441 64.635C74.1933 64.635 73.7593 64.757 73.442 65.0011C73.1283 65.2415 72.9113 65.5092 72.7909 65.8042L71.2536 65.4546C71.4359 64.9446 71.7022 64.533 72.0523 64.2198C72.4061 63.9029 72.8128 63.6734 73.2724 63.5313C73.7319 63.3856 74.2152 63.3128 74.7222 63.3128C75.0577 63.3128 75.4133 63.3529 75.789 63.433C76.1683 63.5095 76.5221 63.6515 76.8504 63.8592C77.1823 64.0668 77.454 64.3636 77.6655 64.7497C77.8771 65.1322 77.9829 65.6294 77.9829 66.2413V71.8142H76.3853V70.6669H76.3197C76.2139 70.8781 76.0553 71.0858 75.8437 71.2897C75.6322 71.4937 75.3604 71.6631 75.0285 71.7978C74.6966 71.9326 74.2991 72 73.8359 72ZM74.1915 70.6887C74.6437 70.6887 75.0304 70.5995 75.3513 70.421C75.6759 70.2425 75.9221 70.0094 76.0899 69.7217C76.2613 69.4303 76.347 69.1188 76.347 68.7874V67.7056C76.2887 67.7639 76.1756 67.8185 76.0078 67.8695C75.8437 67.9168 75.6559 67.9587 75.4443 67.9951C75.2328 68.0279 75.0267 68.0589 74.8261 68.088C74.6255 68.1135 74.4577 68.1354 74.3228 68.1536C74.0055 68.1937 73.7155 68.261 73.4529 68.3557C73.1939 68.4505 72.9861 68.587 72.8292 68.7655C72.676 68.9404 72.5994 69.1735 72.5994 69.4649C72.5994 69.8692 72.749 70.1751 73.0481 70.3828C73.3471 70.5867 73.7283 70.6887 74.1915 70.6887Z" fill="black"/>
<path d="M80.5468 71.8142V63.4221H82.1279V64.7552H82.2154C82.3686 64.3035 82.6385 63.9484 83.0251 63.6898C83.4154 63.4275 83.8567 63.2964 84.3491 63.2964C84.4512 63.2964 84.5716 63.3 84.7102 63.3073C84.8524 63.3146 84.9637 63.3237 85.0439 63.3347V64.8973C84.9783 64.879 84.8616 64.859 84.6938 64.8372C84.526 64.8117 84.3582 64.7989 84.1905 64.7989C83.8038 64.7989 83.4592 64.8809 83.1564 65.0448C82.8574 65.205 82.6203 65.4291 82.4452 65.7168C82.2701 66.0009 82.1826 66.3251 82.1826 66.6893V71.8142H80.5468Z" fill="black"/>
<path d="M90.0835 71.9836C89.2701 71.9836 88.5699 71.7997 87.9826 71.4318C87.3991 71.0603 86.9505 70.5485 86.6368 69.8965C86.3231 69.2445 86.1663 68.4978 86.1663 67.6564C86.1663 66.8041 86.3268 66.0519 86.6477 65.3999C86.9687 64.7443 87.421 64.2325 88.0045 63.8646C88.5881 63.4967 89.2756 63.3128 90.0671 63.3128C90.7053 63.3128 91.2743 63.4312 91.774 63.6679C92.2737 63.9011 92.6767 64.2289 92.9831 64.6514C93.2931 65.0739 93.4773 65.5675 93.5356 66.132H91.9436C91.8561 65.7387 91.6555 65.3999 91.3418 65.1158C91.0318 64.8317 90.616 64.6896 90.0944 64.6896C89.6385 64.6896 89.2391 64.8098 88.8963 65.0502C88.5571 65.287 88.2927 65.6257 88.103 66.0665C87.9133 66.5036 87.8185 67.0208 87.8185 67.6182C87.8185 68.2301 87.9115 68.7582 88.0975 69.2026C88.2835 69.647 88.5461 69.9912 88.8853 70.2352C89.2282 70.4793 89.6312 70.6013 90.0944 70.6013C90.4044 70.6013 90.6853 70.5449 90.937 70.4319C91.1923 70.3154 91.4056 70.1496 91.5771 69.9347C91.7521 69.7198 91.8743 69.4612 91.9436 69.1589H93.5356C93.4773 69.7016 93.3004 70.1861 93.005 70.6122C92.7095 71.0384 92.3138 71.3735 91.8178 71.6175C91.3254 71.8616 90.7473 71.9836 90.0835 71.9836Z" fill="black"/>
<path d="M97.3059 66.8314V71.8142H95.6701V60.6247H97.2841V64.788H97.388C97.585 64.3363 97.8859 63.9775 98.2907 63.7116C98.6956 63.4457 99.2244 63.3128 99.8773 63.3128C100.454 63.3128 100.957 63.4312 101.387 63.6679C101.821 63.9047 102.157 64.258 102.394 64.7279C102.635 65.1941 102.755 65.7769 102.755 66.4763V71.8142H101.119V66.6729C101.119 66.0574 100.961 65.5802 100.643 65.2415C100.326 64.8991 99.8846 64.7279 99.3193 64.7279C98.9326 64.7279 98.5862 64.8098 98.2798 64.9737C97.9771 65.1377 97.7382 65.3781 97.5631 65.6949C97.3917 66.0082 97.3059 66.387 97.3059 66.8314Z" fill="black"/>
<path d="M105.323 71.8142V63.4221H106.959V71.8142H105.323ZM106.149 62.1272C105.865 62.1272 105.62 62.0325 105.416 61.8431C105.215 61.65 105.115 61.4206 105.115 61.1547C105.115 60.8851 105.215 60.6556 105.416 60.4662C105.62 60.2732 105.865 60.1767 106.149 60.1767C106.434 60.1767 106.676 60.2732 106.877 60.4662C107.081 60.6556 107.183 60.8851 107.183 61.1547C107.183 61.4206 107.081 61.65 106.877 61.8431C106.676 62.0325 106.434 62.1272 106.149 62.1272Z" fill="black"/>
<path d="M113.467 63.4221V64.7334H108.877V63.4221H113.467ZM110.108 61.4114H111.744V69.3501C111.744 69.667 111.791 69.9056 111.886 70.0659C111.981 70.2225 112.103 70.33 112.253 70.3882C112.406 70.4429 112.572 70.4702 112.751 70.4702C112.882 70.4702 112.997 70.4611 113.095 70.4429C113.194 70.4247 113.27 70.4101 113.325 70.3992L113.621 71.7487C113.526 71.7851 113.391 71.8215 113.216 71.8579C113.041 71.898 112.822 71.9199 112.559 71.9235C112.129 71.9308 111.728 71.8543 111.356 71.694C110.984 71.5338 110.683 71.2861 110.453 70.951C110.223 70.6159 110.108 70.1952 110.108 69.6889V61.4114Z" fill="black"/>
<path d="M119.194 71.9836C118.366 71.9836 117.653 71.807 117.054 71.4536C116.46 71.0967 116 70.5959 115.676 69.9511C115.355 69.3028 115.194 68.5433 115.194 67.6728C115.194 66.8132 115.355 66.0556 115.676 65.3999C116 64.7443 116.453 64.2325 117.033 63.8646C117.616 63.4967 118.298 63.3128 119.079 63.3128C119.553 63.3128 120.012 63.3911 120.457 63.5477C120.902 63.7044 121.302 63.9502 121.655 64.2853C122.009 64.6204 122.288 65.0557 122.493 65.5911C122.697 66.1229 122.799 66.7695 122.799 67.5307V68.1099H116.119V66.886H121.196C121.196 66.4562 121.108 66.0756 120.933 65.7441C120.758 65.409 120.512 65.1449 120.195 64.9519C119.881 64.7588 119.513 64.6623 119.09 64.6623C118.63 64.6623 118.229 64.7752 117.886 65.0011C117.547 65.2233 117.284 65.5147 117.098 65.8753C116.916 66.2322 116.825 66.6201 116.825 67.039V67.9951C116.825 68.5561 116.923 69.0332 117.12 69.4266C117.321 69.82 117.6 70.1205 117.957 70.3281C118.315 70.5321 118.732 70.6341 119.21 70.6341C119.52 70.6341 119.803 70.5904 120.058 70.503C120.313 70.4119 120.534 70.2771 120.72 70.0987C120.906 69.9202 121.048 69.6998 121.147 69.4376L122.695 69.7162C122.571 70.1715 122.348 70.5704 122.028 70.9127C121.71 71.2515 121.311 71.5156 120.829 71.705C120.352 71.8907 119.806 71.9836 119.194 71.9836Z" fill="black"/>
<path d="M128.539 71.9836C127.725 71.9836 127.025 71.7997 126.438 71.4318C125.854 71.0603 125.406 70.5485 125.092 69.8965C124.778 69.2445 124.622 68.4978 124.622 67.6564C124.622 66.8041 124.782 66.0519 125.103 65.3999C125.424 64.7443 125.876 64.2325 126.46 63.8646C127.043 63.4967 127.731 63.3128 128.522 63.3128C129.161 63.3128 129.73 63.4312 130.229 63.6679C130.729 63.9011 131.132 64.2289 131.438 64.6514C131.748 65.0739 131.933 65.5675 131.991 66.132H130.399C130.311 65.7387 130.111 65.3999 129.797 65.1158C129.487 64.8317 129.071 64.6896 128.55 64.6896C128.094 64.6896 127.694 64.8098 127.352 65.0502C127.012 65.287 126.748 65.6257 126.558 66.0665C126.369 66.5036 126.274 67.0208 126.274 67.6182C126.274 68.2301 126.367 68.7582 126.553 69.2026C126.739 69.647 127.001 69.9912 127.341 70.2352C127.683 70.4793 128.086 70.6013 128.55 70.6013C128.86 70.6013 129.141 70.5449 129.392 70.4319C129.648 70.3154 129.861 70.1496 130.032 69.9347C130.207 69.7198 130.33 69.4612 130.399 69.1589H131.991C131.933 69.7016 131.756 70.1861 131.46 70.6122C131.165 71.0384 130.769 71.3735 130.273 71.6175C129.781 71.8616 129.203 71.9836 128.539 71.9836Z" fill="black"/>
<path d="M138.048 63.4221V64.7334H133.458V63.4221H138.048ZM134.689 61.4114H136.325V69.3501C136.325 69.667 136.372 69.9056 136.467 70.0659C136.562 70.2225 136.684 70.33 136.834 70.3882C136.987 70.4429 137.153 70.4702 137.331 70.4702C137.463 70.4702 137.578 70.4611 137.676 70.4429C137.775 70.4247 137.851 70.4101 137.906 70.3992L138.201 71.7487C138.106 71.7851 137.971 71.8215 137.796 71.8579C137.621 71.898 137.402 71.9199 137.14 71.9235C136.71 71.9308 136.308 71.8543 135.936 71.694C135.564 71.5338 135.263 71.2861 135.034 70.951C134.804 70.6159 134.689 70.1952 134.689 69.6889V61.4114Z" fill="black"/>
<path d="M146.404 65.4709L144.922 65.7332C144.86 65.5438 144.761 65.3635 144.626 65.1923C144.495 65.0211 144.316 64.8809 144.09 64.7716C143.864 64.6623 143.581 64.6077 143.242 64.6077C142.779 64.6077 142.392 64.7115 142.082 64.9191C141.772 65.1231 141.617 65.3872 141.617 65.7113C141.617 65.9918 141.721 66.2176 141.929 66.3888C142.137 66.56 142.473 66.7003 142.936 66.8095L144.271 67.1155C145.044 67.294 145.62 67.569 146 67.9405C146.379 68.312 146.569 68.7947 146.569 69.3884C146.569 69.891 146.423 70.3391 146.131 70.7324C145.843 71.1222 145.44 71.4281 144.922 71.6503C144.408 71.8725 143.811 71.9836 143.133 71.9836C142.192 71.9836 141.424 71.7833 140.83 71.3826C140.235 70.9783 139.87 70.4046 139.735 69.6616L141.316 69.4212C141.415 69.8328 141.617 70.1442 141.924 70.3554C142.23 70.5631 142.629 70.6669 143.122 70.6669C143.658 70.6669 144.087 70.5558 144.407 70.3336C144.728 70.1078 144.889 69.8328 144.889 69.5086C144.889 69.2463 144.79 69.026 144.594 68.8475C144.4 68.669 144.103 68.5342 143.702 68.4432L142.279 68.1317C141.495 67.9533 140.915 67.6691 140.54 67.2794C140.168 66.8897 139.982 66.3961 139.982 65.7988C139.982 65.3034 140.12 64.8699 140.397 64.4984C140.674 64.1269 141.057 63.8373 141.546 63.6297C142.035 63.4184 142.595 63.3128 143.226 63.3128C144.134 63.3128 144.849 63.5095 145.37 63.9029C145.892 64.2926 146.237 64.8153 146.404 65.4709Z" fill="black"/>
</svg>
