<?xml version="1.0" standalone="no"?>
<!DOCTYPE svg PUBLIC "-//W3C//DTD SVG 20010904//EN"
 "http://www.w3.org/TR/2001/REC-SVG-20010904/DTD/svg10.dtd">
<svg version="1.0" xmlns="http://www.w3.org/2000/svg"
 width="1919.000000pt" height="2500.000000pt" viewBox="0 0 1919.000000 2500.000000"
 preserveAspectRatio="xMidYMid meet">
<metadata>
Created by potrace 1.16, written by Peter Selinger 2001-2019
</metadata>
<g transform="translate(0.000000,2500.000000) scale(0.100000,-0.100000)"
fill="#000000" stroke="none">
<path d="M0 12500 l0 -12500 1699 0 c1235 0 1702 3 1707 11 3 6 6 138 4 293
-1 154 -2 344 -2 421 0 77 -1 151 -1 165 -1 28 0 43 3 281 1 92 -1 172 -4 178
-4 6 -4 16 -1 21 4 6 6 97 5 203 -1 106 -2 253 -1 327 0 74 1 189 0 255 0 66
0 134 0 150 0 54 0 230 -1 245 0 8 1 310 2 670 1 360 1 660 -1 665 -1 6 -1 14
0 19 4 16 4 165 1 574 -1 310 1 396 11 408 11 13 10 17 -2 25 -12 6 -14 18
-10 51 4 24 5 84 4 133 -2 50 -3 158 -3 240 4 489 1 1346 -4 1354 -4 5 -2 13
4 16 6 4 8 16 4 28 -3 11 -6 61 -4 111 1 50 2 105 1 121 0 34 0 282 1 305 0 8
-1 96 -2 195 -2 205 9 282 43 294 12 5 50 5 85 0 42 -6 70 -5 83 2 11 5 25 7
31 3 15 -10 1167 -11 1196 -2 18 6 22 15 22 48 0 43 26 85 44 70 6 -4 47 -8
91 -8 146 1 135 6 135 -55 l0 -52 103 -2 c124 -3 325 -3 1850 0 653 1 1195 0
1203 -3 9 -3 46 -3 82 1 37 4 72 4 77 0 6 -4 46 -5 90 -1 44 4 222 5 395 2
173 -2 344 -4 380 -3 36 2 74 2 85 2 66 0 681 0 965 0 184 0 484 0 665 -1 182
-1 362 0 400 3 39 2 111 6 160 7 50 2 75 5 57 7 -18 2 -30 9 -27 14 4 5 -2 12
-12 16 -16 6 -15 8 7 14 l25 7 -25 2 -25 2 25 8 25 8 -25 2 -25 2 25 8 c14 4
349 8 745 9 555 1 724 4 733 13 9 9 17 10 30 2 11 -7 263 -12 787 -13 l770 -2
185 -96 c236 -122 305 -164 290 -173 -8 -5 -4 -10 12 -15 21 -7 22 -7 3 -12
-45 -10 -47 -12 -31 -28 8 -8 21 -15 28 -15 8 0 24 -9 36 -20 12 -11 30 -20
40 -20 11 0 25 -7 32 -15 7 -8 18 -15 25 -15 20 0 219 -102 228 -117 4 -7 21
-13 37 -13 19 0 35 -9 48 -25 11 -14 29 -25 40 -25 11 0 34 -11 50 -25 17 -14
35 -25 41 -25 6 0 40 -16 75 -35 76 -41 92 -43 99 -13 4 13 12 31 20 41 11 16
19 18 50 9 20 -6 37 -7 37 -2 0 13 -23 25 -40 22 -9 -1 -27 9 -40 23 -13 14
-31 25 -40 25 -10 0 -29 11 -44 25 -14 13 -32 22 -40 19 -7 -3 -27 8 -44 25
-23 20 -32 25 -32 14 0 -9 8 -22 18 -30 9 -8 -1 -5 -23 6 -22 10 -109 52 -192
92 -156 74 -195 99 -85 54 63 -26 90 -32 60 -14 -10 5 -18 17 -18 24 0 18 -17
20 -22 3 -6 -17 -58 17 -58 37 0 17 -17 20 -22 4 -5 -16 -34 0 -46 27 -11 24
-32 33 -32 14 0 -18 -17 -10 -49 22 -17 17 -31 26 -31 20 0 -21 -20 -13 -51
20 -24 27 -29 29 -29 13 0 -16 -3 -15 -29 9 -16 15 -41 29 -56 31 -15 1 -38
15 -51 31 -13 16 -23 23 -24 17 0 -21 -16 -15 -48 17 -30 29 -49 40 -37 20 14
-23 -21 -8 -52 22 -26 25 -36 30 -42 20 -6 -10 -15 -5 -35 18 -14 17 -26 37
-26 43 0 7 -7 3 -15 -7 -12 -16 -18 -17 -27 -8 -7 7 -22 12 -34 12 -12 0 -27
7 -34 15 -11 13 -15 14 -29 1 -19 -16 -59 -15 -70 3 -6 9 -11 8 -21 -4 -16
-20 -22 -19 -49 6 l-22 21 -23 -21 c-12 -12 -28 -21 -35 -21 -7 0 -9 -5 -5
-12 4 -7 3 -8 -5 -4 -6 4 -9 11 -7 14 2 4 -2 18 -10 32 -13 25 -13 25 -14 3 0
-25 -19 -30 -38 -11 -7 7 -12 8 -12 3 0 -6 -5 -3 -10 5 -8 13 -12 12 -25 -8
-21 -29 -33 -28 -45 4 -10 25 -30 25 -30 0 0 -8 -11 -16 -24 -18 -18 -4 -26 0
-29 14 -6 21 -27 24 -27 4 0 -26 -23 -30 -41 -8 -20 25 -39 29 -39 8 0 -13
-20 -26 -41 -26 -5 0 -9 9 -9 20 0 11 -7 20 -15 20 -8 0 -15 -4 -15 -10 0 -5
-9 -14 -21 -20 -16 -9 -25 -8 -40 6 -11 10 -19 12 -19 6 0 -19 -48 -14 -60 5
-10 17 -10 17 -20 0 -14 -22 -56 -22 -64 0 -6 14 -8 14 -20 -3 -14 -18 -15
-18 -33 -1 -25 22 -31 21 -51 -4 -19 -22 -52 -18 -52 7 0 19 -16 18 -24 -1 -7
-19 -40 -19 -56 0 -7 8 -16 15 -21 15 -5 0 -9 -7 -9 -15 0 -20 -29 -19 -52 1
-16 16 -18 16 -24 0 -8 -20 -38 -21 -55 0 -11 14 -14 14 -24 1 -14 -19 -59
-26 -61 -9 -1 6 -2 15 -3 19 0 4 -10 -3 -21 -14 -17 -19 -62 -22 -58 -4 2 11
-14 41 -22 41 -5 0 -6 -9 -3 -21 4 -12 0 -25 -8 -30 -24 -15 -51 -10 -56 11
-6 23 -23 27 -23 6 0 -24 -19 -29 -47 -11 -24 16 -27 16 -35 1 -12 -21 -25
-20 -45 4 -22 25 -29 25 -36 1 -6 -25 -53 -23 -49 2 4 23 -15 22 -28 -3 -6
-11 -16 -20 -23 -20 -7 0 -18 9 -25 20 -16 25 -28 25 -35 0 -7 -29 -25 -25
-45 10 -19 34 -32 39 -32 13 0 -36 -15 -45 -40 -25 -23 18 -24 18 -42 0 -15
-15 -23 -16 -39 -8 -11 6 -17 15 -14 21 12 18 -7 9 -26 -14 -10 -13 -18 -17
-19 -9 0 7 -5 10 -11 6 -6 -3 -15 -1 -20 7 -6 11 -11 10 -27 -4 -23 -21 -36
-21 -52 -2 -11 13 -15 13 -33 0 -30 -21 -44 -19 -51 7 -6 21 -7 21 -17 5 -13
-23 -28 -22 -56 5 l-24 22 -5 -21 c-6 -23 -54 -30 -54 -7 0 21 -18 17 -31 -7
-6 -12 -14 -18 -18 -13 -6 9 -47 34 -56 34 -3 0 -5 -7 -5 -15 0 -20 -40 -19
-55 2 -11 15 -13 15 -24 -5 -15 -28 -51 -29 -58 -2 -7 26 -19 26 -26 0 -5 -20
-47 -29 -47 -10 0 6 5 10 11 10 5 0 7 5 4 10 -11 17 -42 11 -48 -10 -6 -24
-45 -27 -52 -5 -15 47 -18 51 -23 30 -2 -11 -8 -25 -13 -31 -12 -15 -49 -6
-49 12 0 20 -9 17 -30 -9 -15 -18 -22 -20 -37 -10 -10 6 -17 16 -16 22 5 19
-14 12 -30 -12 l-16 -22 -25 30 -24 30 -11 -27 c-13 -36 -19 -35 -52 5 l-28
32 -1 -27 c0 -21 -5 -28 -20 -28 -11 0 -20 7 -20 15 0 15 -30 22 -30 8 -1 -32
-50 -39 -50 -7 0 20 -19 17 -38 -5 -13 -15 -22 -17 -39 -11 -13 5 -23 14 -23
20 0 5 -4 10 -10 10 -5 0 -10 -9 -10 -20 0 -24 -18 -26 -48 -4 -22 15 -24 15
-37 -2 -13 -18 -15 -18 -30 4 -19 25 -35 29 -35 7 0 -10 -10 -15 -30 -15 -20
0 -30 5 -30 15 0 21 -13 19 -28 -6 -13 -20 -14 -20 -38 -4 -24 15 -27 15 -45
-1 -18 -16 -20 -16 -38 7 -19 23 -20 23 -34 5 -19 -26 -65 -29 -72 -5 -8 25
-21 24 -28 -1 -5 -20 -37 -29 -37 -10 0 6 -9 19 -20 30 l-20 20 0 -23 c0 -13
-3 -26 -6 -29 -12 -13 -45 6 -50 28 -7 28 -24 32 -24 5 0 -24 -25 -45 -45 -37
-8 3 -15 15 -15 26 0 29 -14 25 -26 -8 l-10 -27 -26 28 c-26 28 -27 28 -38 8
-12 -24 -40 -28 -40 -6 0 8 -9 15 -19 15 -10 0 -21 -7 -25 -15 -7 -20 -36 -19
-52 3 -12 15 -15 15 -24 2 -5 -8 -11 -18 -12 -22 -5 -13 -48 4 -48 18 0 19
-16 18 -24 -1 -7 -21 -43 -19 -56 3 -10 16 -10 16 -20 0 -14 -22 -60 -24 -60
-3 0 21 -18 19 -25 -4 -6 -21 -43 -18 -52 5 -8 20 -21 17 -28 -7 l-7 -21 -22
21 c-26 24 -46 27 -46 7 0 -26 -23 -30 -41 -8 -20 25 -39 29 -39 8 0 -8 -10
-18 -22 -22 -16 -5 -26 -1 -36 14 -14 21 -14 21 -31 2 -15 -19 -18 -19 -45 -5
-27 14 -31 14 -38 0 -12 -21 -31 -19 -54 6 l-18 20 -8 -21 c-6 -17 -11 -19
-28 -10 -11 6 -20 15 -20 20 0 19 -28 9 -33 -12 -5 -18 -8 -19 -21 -8 -9 7
-16 9 -16 4 0 -5 -6 0 -12 10 -10 18 -11 18 -27 -3 -18 -24 -51 -20 -51 5 0
21 -16 17 -33 -9 l-16 -22 -16 23 c-18 25 -45 30 -45 8 0 -8 -6 -16 -13 -19
-21 -7 -47 5 -47 22 0 12 -5 10 -19 -8 l-18 -24 -31 34 -31 34 -1 -27 c0 -15
-5 -30 -11 -33 -12 -8 -61 34 -53 46 3 5 1 9 -5 9 -5 0 -11 -12 -13 -27 -4
-34 -24 -36 -41 -4 -14 29 -31 29 -35 1 -4 -24 -52 -29 -52 -6 0 27 -20 28
-30 2 -12 -31 -20 -32 -54 -5 -21 17 -26 18 -26 5 0 -9 -7 -16 -15 -16 -8 0
-12 6 -9 15 3 8 2 20 -2 27 -6 9 -10 4 -15 -17 -6 -30 -6 -30 -15 -7 l-10 24
-12 -26 c-14 -31 -26 -33 -48 -7 -16 18 -17 18 -35 0 -16 -16 -55 -17 -45 0 2
3 0 15 -4 26 -6 18 -9 17 -24 -14 l-18 -33 -24 23 -24 23 -19 -21 c-24 -25
-67 -20 -74 8 -3 10 -10 19 -15 19 -6 0 -8 -9 -5 -20 4 -16 0 -20 -22 -20 -19
0 -26 4 -22 14 3 8 0 20 -8 26 -10 8 -15 4 -23 -19 -8 -22 -15 -28 -30 -24
-11 2 -24 14 -30 26 l-11 22 -7 -22 c-4 -16 -14 -23 -30 -23 -19 0 -24 5 -24
27 l0 26 -25 -29 c-24 -27 -27 -28 -39 -12 -17 23 -33 23 -46 -1 -12 -24 -48
-17 -60 13 l-9 21 -7 -22 c-8 -30 -40 -30 -65 -1 -15 19 -18 20 -19 6 0 -28
-20 -32 -50 -10 -27 21 -28 21 -33 2 -3 -14 -14 -20 -31 -20 -21 0 -26 5 -26
25 0 31 -17 33 -22 3 -2 -17 -10 -23 -28 -23 -18 0 -26 6 -28 23 -4 29 -18 28
-26 -3 -4 -14 -13 -25 -21 -25 -8 0 -17 11 -21 25 -8 32 -21 32 -36 0 -14 -31
-46 -33 -57 -3 l-8 22 -14 -22 c-18 -29 -74 -32 -64 -3 3 11 1 22 -4 26 -6 3
-13 -6 -17 -20 -7 -28 -24 -34 -24 -9 0 13 -3 14 -14 5 -10 -8 -16 -9 -21 -1
-9 15 -25 12 -25 -5 0 -22 -36 -18 -60 7 l-20 22 0 -22 c0 -17 -6 -22 -25 -22
-19 0 -25 5 -23 16 4 25 -19 28 -32 5 -14 -27 -27 -26 -50 2 l-18 22 -11 -27
c-13 -35 -25 -35 -56 -2 -18 19 -25 22 -25 12 0 -9 -7 -22 -16 -29 -14 -11
-19 -10 -34 9 -23 28 -40 28 -40 1 0 -15 -4 -19 -16 -15 -9 3 -20 6 -25 6 -5
0 -9 11 -9 25 0 16 -6 25 -15 25 -9 0 -15 -9 -15 -25 0 -30 -25 -34 -40 -5
-14 25 -27 25 -35 0 -7 -24 -30 -26 -39 -5 -8 22 -34 18 -41 -5 -5 -16 -12
-19 -28 -14 -26 8 -39 24 -32 42 2 6 -2 12 -10 12 -9 0 -15 -10 -15 -24 0 -14
-4 -27 -9 -30 -13 -8 -34 21 -27 39 3 10 -1 15 -13 15 -12 0 -21 -10 -25 -25
-7 -27 -26 -34 -26 -10 0 9 -9 15 -24 15 -13 0 -26 -7 -30 -15 -9 -24 -42 -17
-56 13 l-14 27 -4 -28 c-4 -32 -20 -34 -51 -6 l-22 21 -6 -21 c-6 -25 -33 -28
-33 -5 0 14 -3 14 -15 4 -12 -10 -15 -10 -15 1 -1 10 -5 8 -15 -5 -11 -15 -17
-16 -28 -8 -8 7 -17 9 -21 5 -3 -4 -13 2 -21 13 -14 19 -14 18 -15 -3 0 -12
-4 -24 -10 -28 -12 -8 -53 33 -45 45 4 6 1 10 -5 10 -6 0 -16 -11 -22 -25 -13
-29 -34 -32 -61 -8 -18 17 -19 17 -28 0 -14 -25 -36 -21 -43 8 -8 32 -24 32
-36 0 -11 -28 -44 -34 -54 -10 -7 19 -26 19 -26 0 0 -22 -26 -18 -50 7 l-21
23 -6 -23 c-6 -25 -40 -30 -49 -7 -8 21 -20 19 -46 -7 l-22 -22 -9 27 c-10 32
-22 34 -37 7 -14 -26 -50 -26 -57 0 -7 26 -33 26 -33 0 0 -11 -7 -20 -15 -20
-8 0 -15 3 -15 8 0 4 -9 13 -20 20 -18 11 -21 9 -30 -13 -11 -30 -33 -25 -47
13 l-10 27 -13 -27 c-18 -37 -54 -39 -48 -3 5 22 3 24 -11 13 -9 -7 -23 -21
-32 -31 -19 -23 -62 -16 -52 9 8 21 -13 17 -28 -7 -17 -24 -46 -17 -51 12 -4
28 -22 24 -26 -6 -3 -19 -9 -25 -29 -25 -22 0 -25 3 -21 30 4 24 1 30 -11 28
-9 -2 -17 -13 -19 -26 -4 -29 -29 -28 -58 3 l-23 25 -3 -23 c-3 -24 -38 -37
-38 -14 0 8 -7 18 -16 21 -23 9 -24 8 -24 -14 0 -12 -7 -20 -17 -20 -28 0 -47
16 -40 33 4 11 1 14 -8 11 -7 -3 -15 -14 -18 -25 -3 -11 -14 -19 -26 -19 -16
0 -21 6 -21 25 0 33 -18 32 -31 -1 -9 -25 -11 -26 -28 -10 -22 20 -51 21 -51
1 0 -8 -6 -15 -14 -15 -7 0 -19 7 -26 15 -7 8 -19 15 -26 15 -8 0 -14 -7 -14
-15 0 -8 -9 -15 -20 -15 -11 0 -20 7 -20 15 0 19 -29 19 -36 0 -8 -21 -30 -19
-53 4 -20 20 -20 20 -26 0 -7 -22 -52 -23 -48 -1 2 6 -6 12 -17 12 -11 0 -20
-7 -20 -15 0 -8 -4 -15 -9 -15 -21 0 -41 13 -41 26 0 21 -18 17 -25 -6 -8 -26
-31 -26 -47 0 -17 26 -22 25 -36 -5 -10 -22 -14 -24 -32 -13 -11 7 -20 18 -20
25 0 21 -21 15 -27 -7 -7 -27 -33 -25 -34 3 -1 21 -1 21 -9 -3 l-7 -25 -11 25
-11 25 -7 -22 c-8 -28 -34 -30 -41 -3 -7 26 -29 26 -43 0 -14 -25 -26 -25 -40
0 -9 17 -7 22 15 32 19 8 31 8 50 0 13 -6 27 -8 29 -3 3 4 128 7 278 6 150 -1
277 0 282 3 15 8 -18 22 -56 22 -20 0 -40 5 -43 10 -3 6 -13 10 -21 10 -8 0
-12 -5 -9 -10 4 -6 -28 -10 -89 -10 -66 0 -96 4 -100 13 -5 9 -7 9 -12 0 -6
-14 -219 -19 -227 -5 -3 4 -69 7 -146 7 -119 0 -141 2 -141 15 0 13 36 15 276
12 238 -2 277 0 291 13 8 9 18 13 21 10 4 -3 0 -10 -8 -15 -10 -7 1 -10 38
-10 28 0 52 5 52 10 0 6 5 10 11 10 5 0 7 -4 4 -10 -3 -6 4 -10 17 -9 13 0 17
3 10 6 -15 6 -6 23 14 23 8 0 14 -8 15 -17 0 -11 3 -13 6 -5 2 6 12 12 21 12
15 0 15 -2 2 -10 -12 -8 -11 -10 6 -10 11 0 25 5 31 11 7 7 24 13 40 16 141
20 430 32 778 33 326 1 409 5 400 20 -9 14 58 20 363 30 377 12 4498 19 4962
8 354 -9 879 -1 845 13 -11 4 -36 8 -55 9 -19 1 -29 4 -22 7 6 2 9 9 6 14 -3
5 -9 101 -13 212 -5 111 -10 208 -12 216 -2 8 8 21 24 29 31 15 30 -1 14 177
-1 17 -12 44 -24 61 -20 28 -23 47 -28 183 -2 83 -7 162 -10 174 -10 41 -14
287 -20 1097 -11 1664 -15 2403 -20 4115 -5 1826 -16 4314 -20 4445 -1 41 -5
341 -9 665 -7 593 -18 1023 -36 1385 -16 336 -23 450 -27 450 -2 0 -19 -16
-38 -35 -34 -34 -35 -36 -35 -120 0 -65 -3 -85 -13 -85 -8 0 -22 -18 -32 -40
-10 -22 -22 -40 -27 -40 -4 0 -8 -18 -8 -40 0 -22 -4 -40 -8 -40 -12 0 -32
-180 -39 -342 -3 -76 -10 -138 -14 -138 -5 0 -9 -18 -9 -40 0 -27 -4 -40 -14
-40 -14 0 -26 -77 -26 -179 -1 -31 -7 -67 -15 -81 -9 -16 -15 -57 -16 -110 -2
-138 -13 -260 -25 -268 -13 -8 -27 -379 -24 -599 1 -84 -2 -123 -9 -123 -7 0
-11 29 -11 80 0 83 -19 115 -22 38 l-1 -43 -7 40 c-7 37 -7 36 -4 -10 15 -214
16 -265 5 -265 -7 0 -11 -26 -11 -80 0 -44 3 -80 8 -80 8 0 6 -61 -8 -310 -6
-97 -13 -259 -16 -360 -3 -128 -8 -187 -17 -193 -9 -7 -9 -10 1 -14 14 -5 17
-83 3 -83 -14 0 -25 -151 -11 -160 8 -5 10 -30 7 -81 -3 -47 -2 -59 3 -34 5
27 7 3 7 -75 0 -69 -2 -101 -7 -80 -5 30 -8 22 -16 -50 l-9 -85 -6 85 c-5 74
-6 66 -7 -60 -2 -131 -1 -142 12 -118 8 16 17 43 19 60 2 18 2 -10 -1 -62 -2
-52 1 -129 6 -170 12 -80 -1 -1021 -16 -1155 l-7 -70 -6 85 -5 85 -2 -97 c-2
-75 -5 -98 -16 -98 -10 0 -15 -26 -20 -102 -4 -57 -17 -134 -28 -173 -12 -38
-20 -78 -19 -89 2 -12 -1 -16 -9 -11 -7 4 -10 19 -8 34 l4 26 -2246 4 -2245 3
-5 2512 -5 2511 -37 100 c-34 95 -241 699 -443 1295 -233 686 -280 826 -390
1145 -64 187 -131 385 -150 440 -18 55 -100 298 -183 540 -83 242 -197 576
-253 743 l-103 302 -1577 0 -1577 0 6 -88 c2 -48 9 -88 13 -90 5 -2 9 -18 8
-35 -1 -31 -1 -31 -10 -7 -5 16 -7 -3 -3 -55 3 -44 7 -136 10 -205 4 -115 6
-126 27 -142 12 -10 17 -18 11 -18 -14 0 -33 -85 -28 -119 8 -46 9 -265 1
-291 -6 -19 -5 -20 2 -5 7 17 10 13 18 -25 5 -27 6 -47 0 -51 -5 -4 -6 -72 -1
-170 5 -90 9 -209 9 -264 0 -55 4 -106 9 -114 6 -9 5 -12 -1 -8 -12 7 -8 -255
11 -745 3 -71 1 -128 -3 -128 -4 0 -6 -53 -4 -117 5 -149 5 -206 3 -318 -2
-87 -2 -89 -14 -50 -12 36 -14 38 -24 20 -10 -18 -11 -18 -12 8 0 16 4 26 10
22 6 -3 10 3 10 14 0 12 -4 21 -10 21 -5 0 -10 4 -10 10 0 5 7 7 15 4 18 -7
20 7 3 24 -6 6 -15 31 -19 54 l-6 43 -3 -50 c-2 -42 -3 -46 -10 -25 -7 20 -8
15 -7 -22 0 -26 4 -45 9 -42 4 3 7 -37 6 -88 -1 -51 1 -148 3 -216 3 -67 1
-115 -3 -105 -5 13 -7 8 -7 -15 -1 -23 3 -31 10 -26 9 5 10 -18 5 -89 -7 -87
-6 -97 10 -97 15 0 16 -7 8 -67 -5 -38 -8 -108 -7 -157 2 -90 -3 -104 -17 -44
-6 26 -8 18 -8 -37 0 -53 2 -63 8 -40 6 22 8 10 8 -45 0 -41 2 -93 5 -115 5
-38 5 -38 -2 -5 -8 32 -8 30 -10 -23 -1 -37 3 -56 9 -52 5 3 10 -3 10 -14 0
-14 -5 -19 -15 -15 -15 6 -20 45 -18 154 l2 55 -9 -45 c-8 -39 -10 -86 -9
-180 3 -193 -2 -962 -7 -958 -11 12 -18 234 -18 573 0 257 -2 316 -7 220 -11
-182 -12 -658 -4 -922 6 -185 5 -223 -6 -223 -12 0 -12 -2 0 -9 16 -10 17 -87
2 -216 -39 -347 -48 -463 -50 -664 -2 -142 -10 -64 -14 124 -1 104 0 179 4
165 l7 -25 1 27 c1 15 -3 30 -9 33 -15 9 -12 25 4 25 11 0 15 42 19 223 3 122
5 231 5 242 -1 11 2 77 6 147 4 74 3 129 -2 132 -5 3 -9 -13 -8 -37 0 -23 -3
-130 -7 -237 -4 -107 -8 -231 -9 -275 0 -44 -4 -89 -8 -100 -14 -38 -23 154
-17 369 3 116 3 203 1 194 -11 -36 -25 -18 -17 20 4 20 7 55 6 76 -1 27 2 35
8 25 6 -9 9 4 9 41 0 30 0 181 0 335 -1 153 -3 281 -5 284 -3 2 -6 -40 -6 -95
-1 -58 -4 -87 -8 -69 -5 25 -8 27 -14 12 -4 -10 -7 -35 -6 -55 1 -32 2 -34 8
-12 7 24 7 24 14 -9 9 -44 9 -53 -2 -47 -22 14 -31 -282 -9 -329 9 -20 9 -28
0 -34 -8 -5 -10 -44 -8 -126 1 -66 0 -106 -4 -90 -6 23 -8 25 -9 8 0 -12 4
-34 9 -49 8 -19 7 -44 -1 -83 -6 -31 -12 -112 -13 -180 0 -74 -5 -126 -11
-128 -6 -2 -9 15 -6 43 2 25 -2 51 -8 57 -8 8 -11 -8 -11 -59 0 -58 3 -71 20
-82 16 -9 20 -23 20 -61 0 -28 5 -51 11 -53 8 -3 7 -9 -4 -19 -8 -9 -19 -38
-23 -65 -4 -27 -9 -43 -11 -37 -3 7 0 36 6 64 14 64 5 137 -15 117 -10 -10
-12 -40 -7 -126 4 -66 10 -108 14 -100 9 13 9 12 14 -57 3 -36 -4 -57 -16 -49
-5 3 -9 -40 -8 -98 1 -93 2 -100 14 -74 12 28 13 27 17 -40 3 -39 0 -72 -5
-75 -13 -9 2 -31 15 -23 7 5 9 0 5 -14 -4 -12 -10 -31 -13 -42 -4 -12 -2 -20
5 -20 7 0 11 -20 10 -52 0 -41 -3 -49 -10 -33 -6 14 -8 0 -5 -45 3 -36 1 -83
-3 -105 l-9 -40 -2 45 c-1 25 -6 56 -11 70 -6 17 -7 -2 -5 -57 2 -46 1 -83 -2
-83 -4 0 -6 -47 -6 -105 1 -88 4 -108 19 -119 16 -12 16 -13 0 -29 -14 -15
-16 -42 -16 -206 1 -115 -3 -192 -9 -196 -6 -3 -10 -17 -10 -31 0 -14 4 -23 9
-20 5 3 12 -1 15 -10 3 -8 2 -12 -4 -9 -6 4 -10 -24 -10 -75 0 -49 -6 -95 -15
-116 -8 -20 -12 -40 -9 -45 3 -5 0 -9 -5 -9 -6 0 -11 7 -11 15 0 8 -4 15 -10
15 -12 0 -12 -142 0 -215 6 -37 7 -22 5 60 -2 90 -1 104 8 80 l11 -30 7 35 c5
30 7 26 8 -23 1 -37 -3 -56 -9 -52 -6 4 -10 -17 -9 -57 1 -49 3 -56 9 -33 4
18 7 -24 8 -102 0 -79 -4 -133 -9 -133 -6 0 -9 -21 -8 -47 4 -94 -14 -424 -22
-411 -5 8 -9 -13 -9 -49 0 -40 -4 -63 -11 -63 -8 0 -9 17 -5 53 19 149 24 223
15 231 -5 6 -10 44 -10 85 -1 42 -4 108 -8 146 l-6 70 -8 -105 c-4 -58 -10
-130 -14 -160 l-8 -55 -5 50 c-3 28 -6 -13 -6 -90 0 -144 -9 -202 -25 -173 -5
9 -4 30 1 49 13 43 13 52 0 44 -6 -3 -11 -18 -11 -33 -2 -21 -4 -18 -10 13 -6
32 -6 27 -3 -20 6 -84 6 -123 -2 -177 -4 -31 -2 -48 4 -48 6 0 13 26 17 58 10
92 15 94 9 2 -3 -47 -9 -103 -14 -125 -8 -40 -8 -40 -9 -7 0 18 -5 31 -10 28
-5 -4 -5 -22 0 -43 5 -21 8 -60 7 -88 l-1 -50 -7 40 c-5 25 -6 12 -3 -35 3
-41 8 -81 13 -89 4 -7 6 11 4 40 -2 47 -2 50 6 19 6 -26 7 -18 4 35 -2 39 3
108 11 155 13 78 14 80 10 23 -2 -34 -7 -81 -10 -105 -3 -33 -3 -37 4 -18 5
14 10 43 11 65 l3 40 8 -35 c7 -30 7 -27 4 15 -11 127 -14 218 -7 195 7 -20
11 -9 20 55 7 44 15 112 18 150 3 39 8 72 11 75 3 3 2 -44 -3 -105 -9 -119 -9
-148 -5 -240 2 -33 1 -82 -3 -110 -3 -27 -8 -79 -10 -114 -5 -74 -25 -108 -27
-45 -2 29 -3 32 -6 12 -2 -15 0 -42 5 -61 5 -19 6 -40 1 -48 -4 -8 -11 -71
-16 -139 -5 -84 -9 -110 -12 -80 l-5 45 -7 -55 c-6 -44 -7 -37 -5 35 2 51 0
79 -4 65 -15 -48 -11 -170 5 -186 18 -18 20 -70 3 -80 -7 -4 -8 -3 -4 5 4 6 2
19 -6 28 -10 12 -13 65 -14 215 -1 109 -4 202 -8 205 -3 3 -6 -12 -6 -35 0
-23 -3 -42 -7 -42 -5 0 -7 44 -6 98 1 53 -3 119 -8 146 -11 62 -4 72 10 14
l11 -43 -5 42 c-3 23 0 53 6 66 7 16 8 38 1 68 l-10 44 -1 -55 c-1 -39 -4 -51
-11 -40 -5 8 -10 26 -10 39 0 13 -3 22 -6 18 -3 -3 -7 -52 -9 -109 -1 -57 1
-89 4 -73 4 17 7 -48 5 -144 -1 -102 2 -168 7 -160 6 10 9 7 9 -12 0 -15 -7
-29 -15 -33 -8 -3 -14 -2 -14 2 1 4 0 39 -1 77 l-3 70 -8 -50 c-4 -28 -4 6 -2
74 7 151 7 136 4 191 -2 36 -4 41 -11 25 -5 -11 -6 -67 -3 -124 3 -60 2 -102
-3 -98 -5 3 -8 -16 -7 -41 12 -356 0 -643 -28 -626 -5 3 -9 22 -9 42 0 29 3
34 11 22 7 -11 8 -1 4 37 -4 30 -2 59 4 71 8 15 7 21 -4 25 -11 5 -15 -5 -18
-41 -1 -26 -2 25 -1 113 2 150 2 153 -6 60 -4 -55 -13 -138 -18 -185 -6 -47
-11 -128 -11 -180 -2 -187 -20 -420 -31 -420 -5 0 -11 -10 -13 -22 -3 -13 -3
13 0 57 3 44 9 82 13 85 4 3 13 127 20 275 19 407 21 509 5 298 -16 -225 -25
-260 -21 -88 2 73 1 103 -3 68 -4 -46 -9 -60 -19 -55 -9 7 -10 32 -1 123 15
164 20 263 10 219 -8 -32 -8 -33 -10 -7 0 15 5 38 13 50 8 12 15 42 16 67 3
73 -3 89 -11 30 -7 -54 -5 46 5 270 3 59 2 80 -3 55 -7 -39 -7 -39 -12 -10 -3
17 -4 -22 -2 -85 2 -81 0 -108 -7 -90 -7 18 -8 -5 -5 -75 3 -55 1 -125 -4
-155 -8 -45 -8 -37 -4 45 3 72 2 96 -6 85 -10 -13 -11 -13 -11 0 0 8 -3 26 -7
39 -4 17 -3 22 5 17 9 -5 12 7 12 40 0 45 -1 47 -15 28 -14 -18 -15 -16 -9 21
8 47 14 58 14 24 1 -19 2 -21 10 -8 12 20 2 59 -15 59 -7 0 -15 -5 -17 -11 -2
-6 -4 13 -5 43 0 46 0 49 7 18 9 -45 10 -42 15 60 2 56 0 78 -6 65 -6 -13 -7
-2 -3 35 4 41 1 63 -11 85 l-17 30 7 -30 c8 -33 10 -194 2 -201 -2 -2 -7 31
-11 73 -3 43 -11 121 -16 173 -13 115 -24 347 -17 340 2 -3 8 -57 11 -120 8
-150 17 -232 24 -225 3 3 5 27 5 53 -1 45 -1 45 7 12 9 -43 13 -7 4 40 -5 22
-9 27 -15 19 -4 -8 -5 12 -2 44 3 31 2 57 -3 57 -5 0 -10 42 -11 93 -1 50 -7
135 -13 187 -10 98 -20 313 -13 306 10 -9 25 -147 24 -206 -3 -103 41 -501 54
-488 2 2 -1 39 -6 83 -8 72 -6 165 6 265 3 26 2 30 -4 15 -7 -16 -10 -11 -13
25 -3 25 -3 -2 -2 -60 4 -125 -9 -74 -21 85 -6 77 -5 99 6 106 10 6 11 15 3
36 -6 17 -6 59 -2 107 5 46 4 85 -2 95 -12 20 -13 13 -12 -94 0 -77 0 -78 -9
-30 -18 101 -26 371 -24 828 1 257 5 470 8 474 4 3 7 -10 7 -31 0 -20 4 -35 9
-31 5 3 12 1 16 -4 3 -5 -1 -14 -10 -18 -13 -8 -13 -21 -5 -91 6 -45 10 -92 9
-105 -1 -12 -1 -60 0 -107 1 -59 4 -80 11 -70 6 9 7 57 4 115 -7 120 6 405 17
360 6 -27 7 -25 8 15 0 32 -2 41 -9 30 -8 -12 -10 -8 -11 15 0 17 -3 64 -5
105 -1 41 -3 119 -4 173 0 53 -3 97 -7 97 -5 0 -8 -44 -8 -97 0 -54 -4 -107
-9 -118 l-8 -20 -8 20 c-5 11 -8 38 -8 60 l1 40 7 -45 7 -45 1 52 c1 28 -3 64
-9 80 -7 19 -7 29 0 31 6 2 12 22 12 45 1 23 3 34 6 25 2 -10 9 -18 14 -18 10
0 2 66 -10 85 -4 6 -6 37 -5 70 8 266 7 255 14 190 7 -67 11 -67 12 -1 1 25
-5 58 -11 74 -7 16 -10 55 -8 88 l3 59 2 -67 c1 -40 6 -68 13 -68 6 0 8 9 4
20 -3 11 -2 28 4 37 7 13 11 -35 11 -167 1 -335 1 -425 -4 -465 -4 -34 -4 -36
3 -10 8 29 9 28 10 -12 1 -46 1 -46 26 -37 13 5 15 18 11 78 -3 51 -2 60 3 31
l8 -40 2 43 c0 23 -3 42 -9 42 -5 0 -10 23 -10 50 0 28 3 50 8 50 4 0 6 111 5
247 -2 187 0 249 10 255 9 6 9 10 0 16 -6 4 -14 21 -18 37 -12 54 -28 87 -35
75 -8 -13 8 -90 19 -90 11 0 7 -60 -4 -62 -5 -2 -11 8 -13 22 -2 14 -10 40
-19 59 -11 25 -13 39 -5 51 5 9 13 52 16 96 3 45 2 68 -3 54 -7 -22 -8 -21
-12 16 -3 31 -1 40 8 37 9 -4 13 7 12 38 l-2 44 -7 -35 c-6 -30 -8 -31 -10
-10 -4 41 -2 122 5 147 3 13 2 23 -3 23 -4 0 -6 16 -4 36 4 31 6 34 15 19 5
-10 7 -47 4 -86 -3 -41 -2 -69 4 -69 11 0 10 -12 11 138 1 132 17 171 19 45 1
-43 3 -69 6 -58 3 11 9 24 14 30 12 12 11 38 -1 30 -14 -9 -12 21 2 45 9 15
10 23 2 28 -6 4 -14 36 -17 71 -4 51 -10 68 -27 81 -20 15 -21 20 -11 61 l11
44 -5 -47 c-3 -27 0 -48 5 -48 5 0 12 21 15 48 10 69 13 73 15 17 1 -27 5 -72
10 -100 7 -44 8 -40 7 36 -1 54 2 91 10 100 9 12 9 23 -3 54 l-15 40 5 -45 c4
-41 3 -43 -10 -26 -8 11 -14 32 -14 48 0 15 -4 28 -10 28 -5 0 -10 -8 -10 -17
0 -10 -5 -25 -11 -33 -8 -12 -10 -9 -6 14 3 15 -2 40 -9 55 -8 14 -14 35 -13
46 0 19 1 18 11 -2 6 -13 17 -23 25 -23 7 0 13 10 14 23 1 21 1 21 9 -3 7 -21
8 -19 9 16 1 41 -15 60 -45 55 -11 -1 -29 107 -19 117 3 3 5 -5 5 -17 0 -23
27 -58 37 -48 3 4 -1 17 -9 29 -8 13 -20 58 -26 101 -14 89 -14 111 -2 82 l8
-20 8 20 c4 11 14 25 21 30 15 12 19 182 4 235 l-9 35 -3 -40 c-1 -22 -1 -77
0 -122 3 -65 0 -86 -13 -98 -20 -20 -19 -28 -16 160 2 77 3 197 4 268 0 97 3
127 13 127 7 0 12 10 12 23 -1 16 -2 18 -6 5 -2 -10 -11 -18 -19 -18 -11 0
-14 -17 -15 -77 0 -43 -5 -87 -10 -98 -6 -14 -8 -2 -4 38 3 38 2 56 -5 52 -5
-3 -10 -21 -11 -38 0 -18 -3 -40 -7 -49 -12 -28 -13 656 -1 714 16 83 26 187
17 182 -4 -3 -8 3 -9 13 0 16 -1 16 -10 -2 -6 -13 -7 7 -3 60 3 44 13 93 21
108 9 17 12 40 8 58 -8 37 4 141 16 133 5 -3 9 2 9 10 0 28 -19 17 -29 -16 -9
-28 -10 -24 -6 27 3 33 7 110 9 170 4 91 3 99 -4 50 -5 -33 -10 -90 -11 -127
0 -40 -5 -68 -11 -68 -7 0 -9 26 -4 80 4 48 3 80 -3 80 -5 0 -12 -6 -14 -12
-3 -7 -6 -1 -6 15 -1 15 2 27 7 27 4 0 8 35 8 78 1 42 6 106 12 142 l11 65 -6
-90 c-3 -49 -1 -86 3 -82 5 5 12 81 16 170 3 89 9 185 11 212 12 114 16 219 8
195 -9 -25 -9 -25 -12 5 -3 41 -16 -101 -18 -199 -1 -57 -4 -77 -12 -69 -7 7
-7 53 0 154 6 79 13 171 15 204 14 216 39 493 51 569 14 84 20 174 11 165 -5
-5 -13 -58 -22 -146 -5 -54 -11 -74 -23 -78 -13 -4 -16 -20 -16 -82 0 -43 -3
-100 -7 -128 -6 -37 -5 -46 3 -35 8 12 9 9 4 -10 -4 -14 -7 -47 -6 -75 1 -27
-4 -57 -9 -65 -8 -11 -9 -1 -5 38 4 28 3 52 -2 52 -4 0 -9 60 -10 132 -1 73
-3 161 -5 196 -2 37 2 66 8 70 6 4 14 30 18 57 4 28 13 73 21 100 7 28 16 77
20 110 4 33 15 113 26 178 21 131 25 221 8 178 -5 -13 -14 -69 -20 -125 -10
-97 -55 -345 -64 -355 -10 -9 -4 63 10 132 27 131 74 452 76 522 2 41 3 35 9
-30 14 -156 20 -291 10 -260 -5 19 -7 -37 -3 -150 5 -181 13 -248 13 -119 1
38 1 152 2 254 1 102 -4 228 -10 280 -7 52 -12 111 -12 130 0 19 -4 42 -10 50
-8 12 -10 10 -10 -10 -1 -70 -63 -546 -72 -555 -4 -4 -4 9 -1 29 4 24 2 36 -6
36 -9 0 -11 -18 -7 -62 l5 -63 -13 40 c-7 22 -16 72 -19 110 -5 61 -5 65 4 27
6 -23 14 -40 18 -38 4 3 13 38 20 78 7 40 19 96 27 124 8 28 19 100 24 160 6
60 13 133 16 162 5 42 4 52 -9 52 -17 0 -28 -55 -32 -160 -2 -36 -4 -65 -5
-65 0 0 -3 -18 -5 -40 -2 -22 -8 -51 -14 -65 -16 -34 -6 116 14 225 8 44 14
86 15 93 0 9 -100 12 -470 12 l-470 0 0 -12500z m948 3338 c0 -53 21 -259 28
-270 3 -4 0 -8 -6 -8 -7 0 -9 -12 -6 -32 10 -67 15 -154 7 -123 -5 17 -9 47
-10 68 0 20 -5 37 -10 37 -17 0 -22 -53 -12 -124 5 -39 18 -156 27 -261 10
-104 21 -194 26 -200 5 -5 8 -2 8 8 0 9 5 17 10 17 7 0 8 -13 4 -34 -3 -19 -7
-53 -8 -75 -4 -68 -13 -56 -24 31 -39 303 -63 553 -66 693 -1 66 -1 98 1 71 2
-27 10 -54 17 -61 12 -13 13 3 6 145 -2 43 -3 44 -11 15 -6 -22 -7 -16 -4 25
3 30 5 70 5 88 0 17 4 32 9 32 5 0 9 -19 9 -42z"/>
<path d="M1027 24903 c-8 -121 -7 -194 2 -113 6 50 7 46 16 -60 7 -90 11 -107
16 -80 7 34 8 34 6 -7 -2 -24 0 -43 3 -43 3 0 6 -30 8 -66 1 -37 4 -78 6 -93
4 -28 30 -246 45 -371 9 -70 9 -68 4 30 -3 58 -13 173 -24 255 -10 83 -21 188
-24 235 -16 252 -15 303 4 155 l8 -70 2 80 c0 44 -2 117 -6 163 -6 81 -6 82
-33 82 l-27 0 -6 -97z"/>
<path d="M1073 19913 c-2 -229 -7 -371 -13 -377 -5 -5 -10 -21 -9 -35 0 -24 1
-24 10 -6 6 15 8 5 7 -35 0 -30 0 -86 2 -125 l2 -70 10 60 c5 33 8 112 5 175
-2 63 -2 107 1 97 4 -18 4 -18 18 0 7 10 13 23 14 28 0 6 -4 4 -9 -3 -6 -10
-10 -10 -21 3 -7 8 -8 15 -2 15 6 0 7 12 3 33 -6 25 -5 339 1 432 4 54 -3 175
-9 175 -5 0 -9 -165 -10 -367z"/>
<path d="M8430 18870 c-92 -9 -157 -23 -206 -46 -24 -12 -33 -24 -38 -52 -23
-129 -35 -240 -36 -328 0 -93 -2 -102 -20 -107 -30 -8 -39 -44 -24 -101 7 -28
11 -52 9 -54 -17 -18 87 -142 119 -142 9 0 24 -43 45 -132 53 -229 61 -316 37
-448 l-11 -64 -95 -34 c-120 -43 -192 -58 -355 -77 -71 -8 -164 -20 -207 -26
-76 -11 -78 -12 -83 -43 -3 -17 -4 -299 -3 -626 l3 -595 1083 -3 1082 -2 0
634 0 634 -22 5 c-13 3 -63 11 -113 17 -140 18 -264 40 -335 60 -84 23 -258
95 -280 115 -22 20 -40 88 -40 152 0 37 13 77 55 171 30 68 69 144 86 169 44
64 62 135 49 198 -6 28 -14 120 -19 205 -6 95 -15 172 -25 199 -10 28 -16 77
-16 137 0 69 -4 96 -15 107 -59 59 -392 100 -625 77z m417 -360 c13 -14 29
-25 35 -25 9 0 13 -21 14 -70 0 -105 -1 -108 -80 -113 -107 -6 -119 1 -131 78
-18 109 -18 111 3 133 17 18 33 22 79 22 50 1 61 -3 80 -25z m-133 -822 c11
-158 8 -211 -10 -204 -10 4 -13 2 -8 -6 5 -8 2 -9 -10 -5 -10 4 -20 7 -22 7
-7 0 -4 286 3 293 3 4 14 7 23 7 14 0 18 -15 24 -92z"/>
<path d="M960 18390 c0 -10 7 -23 16 -28 13 -7 15 -26 11 -118 -3 -60 -5 -128
-6 -151 0 -24 -5 -43 -11 -43 -6 0 -9 -20 -8 -47 l1 -48 7 45 7 45 1 -47 c1
-26 -2 -49 -7 -52 -9 -6 -5 -144 10 -321 5 -66 11 -142 13 -168 3 -45 11 -66
20 -56 5 5 26 261 32 389 2 52 9 162 14 243 12 182 12 207 1 207 -4 0 -11 -78
-15 -172 -4 -95 -11 -225 -17 -288 -6 -63 -12 -151 -15 -195 -3 -43 -6 -80 -8
-82 -2 -2 -6 52 -9 119 -3 72 -2 124 4 126 13 5 11 82 -2 82 -6 0 -9 -9 -6
-20 3 -11 1 -18 -4 -14 -5 3 -8 33 -8 67 2 57 2 59 9 22 4 -22 8 -33 9 -25 1
13 2 13 11 0 9 -13 10 -13 10 0 1 91 13 326 16 332 3 5 1 8 -5 8 -5 0 -13 -51
-17 -112 -4 -72 -10 -106 -15 -93 -10 27 -11 158 -1 151 10 -6 8 223 -3 247
-10 23 -35 22 -35 -3z"/>
<path d="M7577 18366 c-4 -10 -7 -254 -7 -542 l1 -523 64 2 c35 1 58 -1 52 -5
-8 -5 -6 -8 5 -8 9 0 19 4 22 9 3 4 48 11 100 15 51 3 107 10 122 15 16 5 57
15 91 21 38 8 60 17 56 23 -3 6 -1 7 6 3 15 -10 73 3 65 15 -3 5 2 9 11 9 8 0
18 8 22 18 3 9 15 27 26 40 15 16 17 22 6 23 -8 0 -4 4 8 9 20 8 21 14 16 65
-5 43 -3 59 8 66 8 5 13 20 11 39 -4 31 6 38 25 19 9 -9 10 -6 6 12 -4 13 -9
26 -13 29 -8 5 -40 66 -40 75 0 13 19 3 22 -12 3 -14 5 -13 10 5 4 13 4 22 1
19 -16 -17 -101 101 -88 122 2 5 -2 11 -10 15 -18 7 -20 33 -2 39 9 3 7 10 -6
25 -11 12 -16 26 -11 33 5 9 2 10 -9 6 -12 -4 -15 -1 -11 17 2 13 -3 29 -11
36 -8 7 -12 16 -9 21 3 5 -2 6 -10 3 -11 -4 -13 0 -9 18 3 16 2 19 -5 10 -7
-11 -15 -2 -32 32 -12 26 -29 46 -38 46 -9 0 -33 18 -53 40 -21 22 -42 40 -47
40 -5 0 -12 7 -16 15 -3 8 -18 15 -34 15 -15 0 -32 4 -37 9 -6 5 -35 11 -65
14 -30 3 -64 6 -75 8 -12 3 -19 -1 -17 -8 1 -9 -11 -13 -38 -13 -34 0 -40 -3
-41 -22 -1 -13 -5 -5 -8 17 -5 31 -8 36 -14 21z"/>
<path d="M14650 13146 c-8 -7 -34 -20 -57 -29 -24 -9 -51 -25 -62 -36 -10 -10
-27 -23 -37 -29 -15 -8 -18 -21 -16 -69 2 -50 -2 -66 -23 -98 -14 -20 -33 -58
-41 -84 -8 -25 -19 -54 -24 -63 -6 -10 -13 -55 -16 -100 -6 -79 -5 -84 19
-113 19 -20 23 -33 16 -41 -7 -8 -7 -14 1 -19 23 -14 3 -142 -34 -213 -9 -18
-16 -45 -14 -60 3 -24 11 -29 68 -45 36 -11 94 -26 130 -34 36 -9 74 -19 85
-24 17 -7 117 -42 150 -53 23 -7 51 -18 74 -29 45 -22 272 -2 333 29 37 19 39
35 25 144 -13 104 -34 149 -75 167 -90 39 -123 51 -170 63 -45 10 -52 15 -47
31 13 40 -42 379 -65 399 -3 3 -14 41 -24 85 -28 120 -62 184 -105 201 -20 8
-44 19 -53 24 -22 12 -21 13 -38 -4z"/>
<path d="M15080 8013 c0 -5 26 -23 58 -41 109 -60 897 -451 922 -457 l25 -6
-24 20 c-13 12 -18 21 -12 21 15 0 14 53 -3 92 -7 18 -21 60 -31 93 -28 98
-35 112 -69 143 -32 29 -37 30 -157 35 -110 5 -174 11 -174 16 0 1 -20 4 -45
7 -25 2 -46 9 -48 14 -2 6 -30 10 -62 10 -32 0 -70 4 -84 10 -14 5 -76 12
-137 15 -76 4 -119 11 -135 22 -13 8 -24 11 -24 6z"/>
<path d="M16200 7130 c0 -5 18 -14 40 -20 22 -6 40 -17 40 -24 0 -7 87 -55
193 -106 333 -162 442 -214 447 -215 3 0 10 -3 15 -6 6 -4 26 -10 45 -14 l35
-7 -23 25 c-15 16 -30 23 -43 20 -22 -6 -59 22 -59 45 0 13 -3 12 -14 -3 -13
-18 -15 -18 -44 12 -21 20 -34 27 -41 20 -6 -6 -19 0 -39 19 -16 16 -35 28
-43 26 -9 -1 -28 7 -44 20 -15 12 -36 23 -46 23 -10 1 -28 10 -40 21 -17 14
-23 16 -27 6 -3 -10 -9 -7 -19 8 -9 13 -22 20 -33 17 -13 -3 -17 0 -13 10 3 7
2 13 -3 12 -28 -5 -47 5 -64 34 -11 17 -20 27 -20 20 0 -7 -12 -11 -29 -10
-16 1 -29 4 -29 7 2 12 -15 40 -24 40 -5 0 -6 -4 -3 -10 12 -19 -12 -10 -41
15 -29 25 -74 34 -74 15z"/>
<path d="M4052 4684 c1 -395 5 -683 8 -639 3 44 9 86 14 93 4 7 2 19 -5 28 -9
11 -9 21 -1 38 6 13 8 27 4 30 -9 10 -10 186 -1 192 5 2 4 15 -1 28 -5 13 -9
230 -9 481 0 251 -2 460 -6 463 -3 3 -4 -318 -3 -714z"/>
<path d="M3566 5055 c-3 -9 -6 -276 -5 -593 0 -317 -1 -631 -1 -697 -1 -65 1
-117 4 -114 3 3 7 49 7 103 1 73 5 98 16 105 13 7 13 11 0 37 -12 25 -14 116
-13 601 0 315 0 573 0 573 -1 0 -5 -7 -8 -15z"/>
<path d="M3474 4870 c3 -22 6 -348 6 -723 0 -437 4 -677 10 -667 5 8 7 32 3
52 -3 22 0 51 7 69 9 21 10 33 3 37 -14 10 -16 308 -2 334 7 14 8 23 1 27 -11
7 -9 405 3 463 4 21 2 51 -4 70 -6 18 -11 111 -12 206 -1 107 -5 172 -12 172
-6 0 -7 -16 -3 -40z"/>
<path d="M3640 4005 c-1 -115 -2 -214 -1 -218 1 -5 2 -172 2 -373 0 -200 4
-364 8 -364 4 0 7 58 6 130 -1 71 2 155 6 187 6 41 4 60 -4 65 -9 6 -9 10 2
17 9 6 11 15 6 27 -13 30 -15 98 -2 112 7 9 7 16 0 20 -14 9 -15 452 -1 470 7
8 7 12 -1 12 -14 0 -15 66 -1 75 6 3 10 13 10 21 0 8 -4 13 -9 10 -5 -4 -12 0
-14 6 -3 7 -6 -81 -7 -197z"/>
<path d="M4211 2499 c0 -316 4 -566 8 -556 8 22 6 1115 -2 1124 -4 3 -6 -252
-6 -568z"/>
<path d="M4378 2763 c-2 -5 -3 -290 -3 -635 0 -488 3 -630 13 -639 10 -11 12
-9 12 7 0 12 -3 24 -7 28 -11 11 -12 90 -2 103 7 7 6 14 -1 18 -7 5 -9 49 -5
143 3 76 6 142 6 147 1 38 0 185 0 205 -3 106 -4 258 -3 320 2 130 0 310 -3
310 -2 0 -5 -3 -7 -7z"/>
<path d="M4781 1283 c0 -417 4 -776 8 -798 9 -41 13 -37 15 16 0 17 -2 33 -6
36 -11 6 -10 102 1 140 5 18 6 35 2 38 -5 2 -8 99 -7 213 1 162 4 213 15 226
8 9 11 19 7 23 -3 3 -6 1 -6 -5 0 -7 -4 -12 -9 -12 -4 0 -9 140 -9 310 0 171
3 310 8 310 5 0 4 15 -1 34 -10 37 -7 165 4 183 8 13 -1 43 -14 43 -5 0 -8
-338 -8 -757z"/>
<path d="M3728 1394 c-8 -15 -4 -1362 5 -1370 7 -7 12 87 8 161 -2 22 -3 110
-3 195 -1 235 0 262 2 305 1 22 2 51 1 65 -6 95 -2 464 5 469 14 10 16 34 3
25 -9 -5 -11 10 -6 63 5 62 -3 109 -15 87z"/>
<path d="M4618 784 c-2 -308 -1 -610 2 -673 4 -100 6 -110 17 -82 7 20 8 31 1
31 -6 0 -8 10 -5 23 3 12 2 50 -2 85 -8 64 1 221 14 257 5 14 4 16 -3 6 -6 -9
-10 145 -10 443 0 252 -2 460 -5 463 -4 3 -7 -246 -9 -553z"/>
<path d="M3479 1163 c-1 -290 -1 -379 2 -768 2 -220 5 -344 6 -275 3 84 8 127
16 132 7 4 8 8 1 8 -13 0 -19 379 -12 803 2 126 0 231 -4 233 -5 3 -8 -57 -9
-133z"/>
</g>
</svg>
