<svg width="122" height="97" viewBox="0 0 122 97" fill="none" xmlns="http://www.w3.org/2000/svg">
<path d="M17.216 92.632L18.191 90.8857L17.216 92.632ZM5.248 80.664L6.99425 79.689L5.248 80.664ZM5.248 17.176L6.99425 18.151L5.248 17.176ZM17.216 5.20799L16.241 3.46174H16.241L17.216 5.20799ZM53.056 5.20799L54.031 3.46174V3.46174L53.056 5.20799ZM65.024 80.664L63.2777 79.689L65.024 80.664ZM53.056 92.632L54.031 94.3783L53.056 92.632ZM43.456 78.232L42.4446 76.5066H42.4446L43.456 78.232ZM49.344 72.344L47.6186 71.3326L49.344 72.344ZM49.344 25.368L47.6186 26.3794L49.344 25.368ZM43.456 19.48L42.4446 21.2054L43.456 19.48ZM26.816 19.48L25.8046 17.7546L26.816 19.48ZM20.928 72.344L19.2026 73.3554L20.928 72.344ZM26.816 78.232L27.8274 76.5066L26.816 78.232ZM35.136 94.92C28.5942 94.92 22.9673 93.5525 18.191 90.8857L16.241 94.3783C21.7047 97.4288 28.0245 98.92 35.136 98.92V94.92ZM18.191 90.8857C13.3946 88.2077 9.67225 84.4854 6.99425 79.689L3.50175 81.639C6.54108 87.0826 10.7974 91.3389 16.241 94.3783L18.191 90.8857ZM6.99425 79.689C4.32749 74.9127 2.96 69.2858 2.96 62.744H-1.04C-1.04 69.8555 0.45118 76.1753 3.50175 81.639L6.99425 79.689ZM2.96 62.744V35.096H-1.04V62.744H2.96ZM2.96 35.096C2.96 28.5542 4.32749 22.9273 6.99425 18.151L3.50175 16.201C0.451179 21.6647 -1.04 27.9845 -1.04 35.096H2.96ZM6.99425 18.151C9.67225 13.3546 13.3946 9.63225 18.191 6.95424L16.241 3.46174C10.7974 6.50107 6.54108 10.7574 3.50175 16.201L6.99425 18.151ZM18.191 6.95424C22.9673 4.28749 28.5942 2.92 35.136 2.92V-1.08C28.0245 -1.08 21.7047 0.411175 16.241 3.46174L18.191 6.95424ZM35.136 2.92C41.6778 2.92 47.3047 4.28749 52.081 6.95424L54.031 3.46174C48.5673 0.411175 42.2475 -1.08 35.136 -1.08V2.92ZM52.081 6.95424C56.8774 9.63225 60.5997 13.3546 63.2777 18.151L66.7703 16.201C63.7309 10.7574 59.4746 6.50107 54.031 3.46174L52.081 6.95424ZM63.2777 18.151C65.9445 22.9273 67.312 28.5542 67.312 35.096H71.312C71.312 27.9845 69.8208 21.6647 66.7703 16.201L63.2777 18.151ZM67.312 35.096V62.744H71.312V35.096H67.312ZM67.312 62.744C67.312 69.2858 65.9445 74.9127 63.2777 79.689L66.7703 81.639C69.8208 76.1753 71.312 69.8555 71.312 62.744H67.312ZM63.2777 79.689C60.5997 84.4854 56.8774 88.2077 52.081 90.8857L54.031 94.3783C59.4746 91.3389 63.7309 87.0826 66.7703 81.639L63.2777 79.689ZM52.081 90.8857C47.3047 93.5525 41.6778 94.92 35.136 94.92V98.92C42.2475 98.92 48.5673 97.4288 54.031 94.3783L52.081 90.8857ZM35.136 82.408C38.5374 82.408 41.6642 81.6006 44.4674 79.9574L42.4446 76.5066C40.2984 77.7647 37.8786 78.408 35.136 78.408V82.408ZM44.4674 79.9574C47.2372 78.3337 49.4457 76.1252 51.0694 73.3554L47.6186 71.3326C46.3409 73.5121 44.6241 75.2289 42.4446 76.5066L44.4674 79.9574ZM51.0694 73.3554C52.7127 70.5522 53.52 67.4254 53.52 64.024H49.52C49.52 66.7666 48.8767 69.1864 47.6186 71.3326L51.0694 73.3554ZM53.52 64.024V33.688H49.52V64.024H53.52ZM53.52 33.688C53.52 30.2866 52.7127 27.1598 51.0694 24.3566L47.6186 26.3794C48.8767 28.5256 49.52 30.9454 49.52 33.688H53.52ZM51.0694 24.3566C49.4457 21.5868 47.2372 19.3783 44.4674 17.7546L42.4446 21.2054C44.6241 22.4831 46.3409 24.1999 47.6186 26.3794L51.0694 24.3566ZM44.4674 17.7546C41.6642 16.1113 38.5374 15.304 35.136 15.304V19.304C37.8786 19.304 40.2984 19.9473 42.4446 21.2054L44.4674 17.7546ZM35.136 15.304C31.7346 15.304 28.6078 16.1113 25.8046 17.7546L27.8274 21.2054C29.9736 19.9473 32.3934 19.304 35.136 19.304V15.304ZM25.8046 17.7546C23.0348 19.3783 20.8263 21.5868 19.2026 24.3566L22.6534 26.3794C23.9311 24.1999 25.6479 22.4831 27.8274 21.2054L25.8046 17.7546ZM19.2026 24.3566C17.5594 27.1598 16.752 30.2866 16.752 33.688H20.752C20.752 30.9454 21.3953 28.5256 22.6534 26.3794L19.2026 24.3566ZM16.752 33.688V64.024H20.752V33.688H16.752ZM16.752 64.024C16.752 67.4254 17.5594 70.5522 19.2026 73.3554L22.6534 71.3326C21.3953 69.1864 20.752 66.7666 20.752 64.024H16.752ZM19.2026 73.3554C20.8263 76.1252 23.0348 78.3337 25.8046 79.9574L27.8274 76.5066C25.6479 75.2289 23.9311 73.5121 22.6534 71.3326L19.2026 73.3554ZM25.8046 79.9574C28.6078 81.6006 31.7346 82.408 35.136 82.408V78.408C32.3934 78.408 29.9736 77.7647 27.8274 76.5066L25.8046 79.9574ZM103.21 95H101.21V97H103.21V95ZM103.21 21.784H105.21V18.2066L102.163 20.0802L103.21 21.784ZM85.93 32.408H83.93V35.9854L86.9775 34.1117L85.93 32.408ZM85.93 13.208L84.901 11.493L83.93 12.0756V13.208H85.93ZM103.21 2.84V0.839996H102.656L102.181 1.12501L103.21 2.84ZM121.002 2.84H123.002V0.839996H121.002V2.84ZM121.002 95V97H123.002V95H121.002ZM105.21 95V21.784H101.21V95H105.21ZM102.163 20.0802L84.8825 30.7042L86.9775 34.1117L104.257 23.4877L102.163 20.0802ZM87.93 32.408V13.208H83.93V32.408H87.93ZM86.959 14.923L104.239 4.55498L102.181 1.12501L84.901 11.493L86.959 14.923ZM103.21 4.84H121.002V0.839996H103.21V4.84ZM119.002 2.84V95H123.002V2.84H119.002ZM121.002 93H103.21V97H121.002V93Z" fill="black"/>
</svg>
